<svg xmlns="http://www.w3.org/2000/svg" viewBox="0 0 456 266.602"><defs><mask id="a" width="456" height="266.602" x="0" y="0" maskUnits="userSpaceOnUse"><g fill="#fff"><path d="M234.946 265.685c66.25-17.752 154.353-60.73 213.138-101.917 5.026-3.521 7.916-8.708 7.916-14.17v-32.594c0-5.462-2.89-10.65-7.916-14.17C389.3 61.646 301.196 18.669 234.948.918a26.76 26.76 0 0 0-13.897 0C154.818 18.669 66.715 61.646 7.916 102.834 2.89 106.354 0 111.542 0 117.004v32.594c0 5.462 2.89 10.65 7.916 14.17 58.799 41.188 146.902 84.165 213.137 101.917a26.75 26.75 0 0 0 13.893 0"/><path fill="#010101" d="M11.405 133.301c53.92 41.98 150.798 90.405 216.602 108.27 65.804-17.865 162.682-66.29 216.602-108.27-53.92-41.98-150.798-90.405-216.602-108.27-65.804 17.865-162.683 66.29-216.602 108.27"/><path d="M11.405 133.301c53.92 41.98 150.798 90.405 216.602 108.27 65.804-17.865 162.682-66.29 216.602-108.27-53.92-41.98-150.798-90.405-216.602-108.27-65.804 17.865-162.683 66.29-216.602 108.27"/><path fill="#010101" d="M113.993 144.462v17.735c0 14.046-6.941 20.987-20.987 20.987h-8.557c-14.044 0-20.987-6.941-20.987-20.987v-57.792c0-14.044 6.943-20.987 20.987-20.987h8.394c14.046 0 20.827 6.781 20.827 20.826v16.487H96.72v-15.519c0-4.52-2.1-6.619-6.46-6.619h-2.904c-4.522 0-6.62 2.1-6.62 6.619v56.178c0 4.52 2.098 6.62 6.62 6.62h3.227c4.36 0 6.46-2.1 6.46-6.62v-16.928zm26.716-60.076v82.17h19.049v15.66h-36.325v-97.83zm54.388 98.798h-9.203c-14.044 0-20.987-6.941-20.987-20.987v-57.792c0-14.044 6.943-20.987 20.987-20.987h9.203c14.045 0 20.987 6.943 20.987 20.987v57.792c0 14.046-6.942 20.987-20.987 20.987m-2.746-84.59h-3.55c-4.522 0-6.619 2.099-6.619 6.618v56.178c0 4.52 2.097 6.62 6.619 6.62h3.55c4.36 0 6.46-2.1 6.46-6.62v-56.178c0-4.52-2.1-6.619-6.46-6.619m188.985 33.071 15.821 50.55H379.4l-9.526-36.561-10.17 36.562h-16.628l15.82-49.098-15.497-48.732h17.758l9.362 33.761 9.687-33.76h16.63zm-63.96-48.247h-9.201c-14.046 0-20.987 6.943-20.987 20.987v57.792c0 14.046 6.941 20.987 20.987 20.987h9.2c14.047 0 20.988-6.941 20.988-20.987v-57.792c0-14.044-6.941-20.987-20.987-20.987m3.713 77.972c0 4.52-2.1 6.62-6.458 6.62h-3.551c-4.52 0-6.619-2.1-6.619-6.62v-56.178c0-4.52 2.098-6.619 6.619-6.619h3.55c4.36 0 6.46 2.1 6.46 6.619zm-44.771 1.72v-14.407c0-7.275-5.888-13.163-13.163-13.163 7.275 0 13.163-5.887 13.163-13.163v-17.004c0-14.044-6.943-20.987-20.987-20.987h-28.415v97.83h17.274V143.45h7.59c5.005 0 7.264 2.261 7.264 7.266l.003 15.367c0 8.372 2.203 13.27 6.29 16.133h16.388c-3.502-4.948-5.406-11.382-5.407-19.107m-17.275-41.615c0 4.682-2.26 6.942-7.103 6.942h-7.75V99.723h8.395c4.36 0 6.458 2.1 6.458 6.459z"/><path d="M432.274 183.384v6.634h-1.98v-6.634h-1.74v-1.32h5.447v1.32zm9.119 6.634v-6.667l-1.365 6.667h-2.156l-1.352-6.71v6.71h-1.673v-7.954h3.136l1.011 5.787 1.068-5.787h3.146v7.954zM228.007 241.57c37.625-10.214 85.406-30.419 129.51-53.698-44.537 20.121-91.84 38.708-129.51 47.682-37.67-8.974-84.973-27.56-129.51-47.682 44.103 23.28 91.885 43.484 129.51 53.698m0-216.538c37.625 10.214 85.406 30.419 129.51 53.698-44.537-20.121-91.84-38.708-129.51-47.683-37.67 8.975-84.973 27.562-129.51 47.683 44.103-23.28 91.885-43.484 129.51-53.698"/></g></mask></defs><path d="M0 0h456v266.602H0z" mask="url(#a)"/></svg>